<svg width="24" height="24" viewBox="0 0 24 24" fill="none" xmlns="http://www.w3.org/2000/svg">
<mask id="mask0_802_48196" style="mask-type:alpha" maskUnits="userSpaceOnUse" x="2" y="3" width="20" height="18">
<path fill-rule="evenodd" clip-rule="evenodd" d="M17.8442 6.10797C18.2542 6.16432 18.5983 6.25008 18.9134 6.3806C20.1386 6.88807 21.1119 7.86144 21.6194 9.08658C22 10.0054 22 11.1703 22 13.5C22 15.8297 22 16.9946 21.6194 17.9134C21.1119 19.1386 20.1386 20.1119 18.9134 20.6194C17.9946 21 16.8297 21 14.5 21H9.5C7.17029 21 6.00544 21 5.08658 20.6194C3.86144 20.1119 2.88807 19.1386 2.3806 17.9134C2 16.9946 2 15.8297 2 13.5C2 11.1703 2 10.0054 2.3806 9.08658C2.88807 7.86144 3.86144 6.88807 5.08658 6.3806C5.4017 6.25008 5.74575 6.16432 6.1558 6.10797C6.48525 4.95115 6.73629 4.29054 7.22248 3.82753C7.38009 3.67744 7.55356 3.54494 7.73983 3.43238C8.45536 3 9.37053 3 11.2009 3H12.7991C14.6295 3 15.5446 3 16.2602 3.43238C16.4464 3.54494 16.6199 3.67744 16.7775 3.82753C17.2637 4.29054 17.5148 4.95115 17.8442 6.10797Z" fill="white"/>
</mask>
<g mask="url(#mask0_802_48196)">
<path d="M17.5901 6.38855L16.2102 6.77983L16.4668 7.67683L17.3948 7.80381L17.5901 6.38855ZM18.6128 6.64819L19.1619 5.32837L18.6128 6.64819ZM21.2012 9.22532L19.8756 9.77201L21.2012 9.22532ZM21.2012 17.6318L19.8756 17.0851L21.2012 17.6318ZM18.6128 20.209L19.1619 21.5288L18.6128 20.209ZM5.38716 20.209L4.8381 21.5288L5.38716 20.209ZM2.79884 17.6318L4.1244 17.0851L2.79884 17.6318ZM2.79884 9.22532L1.47327 8.67863L2.79884 9.22532ZM5.38716 6.64819L5.93624 7.96802L5.38716 6.64819ZM6.4099 6.38855L6.60523 7.80381L7.53324 7.67683L7.7898 6.77983L6.4099 6.38855ZM7.4302 4.2167L8.41968 5.2512L7.4302 4.2167ZM7.92506 3.84037L8.66711 5.06304L7.92506 3.84037ZM16.075 3.84037L15.3329 5.06304L16.075 3.84037ZM16.5698 4.2167L17.5593 3.18218L16.5698 4.2167ZM17.3948 7.80381C17.6986 7.84537 17.9029 7.90166 18.0638 7.96802L19.1619 5.32837C18.7199 5.14612 18.2662 5.03904 17.7854 4.97327L17.3948 7.80381ZM18.0638 7.96802C18.8841 8.30634 19.5358 8.95525 19.8756 9.77201L22.5267 8.67863C21.8957 7.16179 20.6853 5.95666 19.1619 5.32837L18.0638 7.96802ZM19.8756 9.77201C19.9732 10.0065 20.0477 10.329 20.0883 10.9203C20.1297 11.5245 20.1304 12.2996 20.1304 13.4286H23C23 12.3388 23.0008 11.4498 22.9511 10.7258C22.9007 9.98901 22.7932 9.31926 22.5267 8.67863L19.8756 9.77201ZM20.1304 13.4286C20.1304 14.5575 20.1297 15.3327 20.0883 15.9369C20.0477 16.5282 19.9732 16.8507 19.8756 17.0851L22.5267 18.1785C22.7932 17.5379 22.9007 16.8681 22.9511 16.1313C23.0008 15.4073 23 14.5184 23 13.4286H20.1304ZM19.8756 17.0851C19.5358 17.9019 18.8841 18.5508 18.0638 18.8891L19.1619 21.5288C20.6853 20.9005 21.8957 19.6953 22.5267 18.1785L19.8756 17.0851ZM18.0638 18.8891C17.8283 18.9863 17.5044 19.0605 16.9105 19.1009C16.3037 19.1421 15.5252 19.1429 14.3913 19.1429V22C15.4859 22 16.3787 22.0008 17.1058 21.9513C17.8458 21.9011 18.5185 21.7941 19.1619 21.5288L18.0638 18.8891ZM14.3913 19.1429H9.6087V22H14.3913V19.1429ZM9.6087 19.1429C8.47485 19.1429 7.69633 19.1421 7.08953 19.1009C6.49562 19.0605 6.17172 18.9863 5.93624 18.8891L4.8381 21.5288C5.48151 21.7941 6.15418 21.9011 6.8942 21.9513C7.62133 22.0008 8.51412 22 9.6087 22V19.1429ZM5.93624 18.8891C5.11592 18.5508 4.46419 17.9019 4.1244 17.0851L1.47327 18.1785C2.1043 19.6953 3.31467 20.9005 4.8381 21.5288L5.93624 18.8891ZM4.1244 17.0851C4.02687 16.8507 3.95227 16.5282 3.91175 15.9369C3.87034 15.3327 3.86957 14.5575 3.86957 13.4286H1C1 14.5184 0.999224 15.4073 1.04884 16.1313C1.09933 16.8681 1.20676 17.5379 1.47327 18.1785L4.1244 17.0851ZM3.86957 13.4286C3.86957 12.2996 3.87034 11.5245 3.91175 10.9203C3.95227 10.329 4.02687 10.0065 4.1244 9.77201L1.47327 8.67863C1.20676 9.31926 1.09933 9.98901 1.04884 10.7258C0.999224 11.4498 1 12.3388 1 13.4286H3.86957ZM4.1244 9.77201C4.46419 8.95525 5.11592 8.30634 5.93624 7.96802L4.8381 5.32837C3.31467 5.95666 2.1043 7.16179 1.47327 8.67863L4.1244 9.77201ZM5.93624 7.96802C6.09716 7.90166 6.30147 7.84537 6.60523 7.80381L6.21456 4.97327C5.73387 5.03904 5.28001 5.14612 4.8381 5.32837L5.93624 7.96802ZM7.7898 6.77983C8.116 5.63943 8.27601 5.38743 8.41968 5.2512L6.44072 3.18218C5.65428 3.9279 5.33405 4.9342 5.02998 5.99725L7.7898 6.77983ZM8.41968 5.2512C8.49506 5.17974 8.57801 5.11664 8.66711 5.06304L7.183 2.61769C6.91574 2.77849 6.66686 2.96777 6.44072 3.18218L8.41968 5.2512ZM8.66711 5.06304C8.75778 5.00848 8.91345 4.94184 9.32153 4.9017C9.75799 4.85877 10.3318 4.85715 11.2356 4.85715V2C10.3886 2 9.64942 1.99839 9.03938 2.0584C8.40098 2.1212 7.77675 2.26046 7.183 2.61769L8.66711 5.06304ZM11.2356 4.85715H12.7644V2H11.2356V4.85715ZM12.7644 4.85715C13.6682 4.85715 14.242 4.85877 14.6785 4.9017C15.0866 4.94184 15.2422 5.00848 15.3329 5.06304L16.817 2.61769C16.2232 2.26046 15.599 2.1212 14.9606 2.0584C14.3506 1.99839 13.6114 2 12.7644 2V4.85715ZM15.3329 5.06304C15.422 5.11664 15.505 5.17974 15.5804 5.25121L17.5593 3.18218C17.3332 2.96777 17.0843 2.77849 16.817 2.61769L15.3329 5.06304ZM15.5804 5.2512C15.724 5.38743 15.8841 5.63943 16.2102 6.77983L18.97 5.99725C18.666 4.9342 18.3458 3.9279 17.5593 3.18218L15.5804 5.2512Z" fill="#C4C4C4"/>
<path d="M15.25 13C15.25 11.2051 13.7949 9.75 12 9.75C10.2051 9.75 8.75 11.2051 8.75 13C8.75 14.7949 10.2051 16.25 12 16.25C13.7949 16.25 15.25 14.7949 15.25 13Z" stroke="#C4C4C4" stroke-width="2"/>
</g>
</svg>
