<svg width="24" height="24" viewBox="0 0 24 24" fill="none" xmlns="http://www.w3.org/2000/svg">
<path fill-rule="evenodd" clip-rule="evenodd" d="M9.80336 17.4381L16.5789 10.6798L13.3646 7.45313L6.58903 14.2115L9.80336 17.4381ZM8.74135 18.4974L5.52702 15.2708L5.50682 15.2909L4.52709 19.4846L8.72088 18.5178L8.74135 18.4974ZM20.2269 7.04107L17.641 9.62046L14.4266 6.39383L17.0129 3.81416L20.2269 7.04107ZM4.08223 21.1269L9.19683 19.948C9.37899 19.906 9.54574 19.8137 9.67814 19.6816L21.6395 7.75073C22.0305 7.36071 22.0315 6.72732 21.6418 6.33602L17.722 2.4006C17.3323 2.0093 16.6993 2.00826 16.3083 2.39829L4.34698 14.3292C4.21459 14.4613 4.12184 14.6278 4.07929 14.81L2.88445 19.9244C2.71603 20.6453 3.3613 21.2931 4.08223 21.1269Z" fill="#818181"/>
</svg>
