<svg width="24" height="24" viewBox="0 0 24 24" fill="none" xmlns="http://www.w3.org/2000/svg">
<path d="M4.29289 10.1213L12 2.41421L19.7071 10.1213C19.8946 10.3089 20 10.5632 20 10.8284V21H4V10.8284C4 10.5632 4.10536 10.3089 4.29289 10.1213Z" stroke="#C4C4C4" stroke-width="2" stroke-miterlimit="16" stroke-linecap="square"/>
<path fill-rule="evenodd" clip-rule="evenodd" d="M8.8002 12.0002C8.8002 11.3375 9.33745 10.8002 10.0002 10.8002H10.8002V9.2002H10.0002C8.4538 9.2002 7.2002 10.4538 7.2002 12.0002V12.8002H8.8002V12.0002ZM14.0002 10.8002C14.6629 10.8002 15.2002 11.3375 15.2002 12.0002V12.8002H16.8002V12.0002C16.8002 10.4538 15.5466 9.2002 14.0002 9.2002H13.2002L13.2002 10.8002L14.0002 10.8002ZM14.0002 17.2002C14.6629 17.2002 15.2002 16.6629 15.2002 16.0002V15.2002L16.8002 15.2002V16.0002C16.8002 17.5466 15.5466 18.8002 14.0002 18.8002H13.2002V17.2002H14.0002ZM10.0002 17.2002C9.33745 17.2002 8.8002 16.6629 8.8002 16.0002L8.8002 15.2002L7.2002 15.2002V16.0002C7.2002 17.5466 8.4538 18.8002 10.0002 18.8002H10.8002V17.2002H10.0002Z" fill="#C4C4C4"/>
</svg>
