<svg width="24" height="24" viewBox="0 0 24 24" fill="none" xmlns="http://www.w3.org/2000/svg">
<path d="M3.1228 8.28588L3.12279 8.28588C2.88477 8.67173 2.99742 9.21027 3.49019 9.47654C4.49574 10.0199 5.27164 10.8898 5.27068 12.0014C5.26972 13.1128 4.49258 13.9818 3.48453 14.5245C2.99744 14.7878 2.88272 15.3239 3.12247 15.7086L3.12279 15.7091L4.19473 17.4314L4.20386 17.4464C4.38531 17.7496 4.87608 17.9202 5.30774 17.6967L5.50517 17.5903L5.50544 17.5902C6.52511 17.0413 7.66108 16.8831 8.60952 17.3955C9.58094 17.9204 10.0269 18.968 10.0238 20.1165M3.1228 8.28588L9.02379 20.1157M3.1228 8.28588L4.06308 6.76167L3.1228 8.28588ZM10.0238 20.1165C10.0238 20.1173 10.0238 20.1182 10.0238 20.119L9.02379 20.1157M10.0238 20.1165L10.0238 20.1144L9.02379 20.1157M10.0238 20.1165L10.0241 20.326M9.02379 20.1157L9.02408 20.3352M10.0241 20.326C10.024 20.3244 10.024 20.3228 10.024 20.3212L9.02408 20.3352M10.0241 20.326C10.0315 20.6528 10.3325 21.0007 10.801 20.9949L10.817 20.9948L12.9467 21.0025L12.9472 21.0025C13.5713 21.0051 13.971 20.5468 13.9745 20.1071M10.0241 20.326L10.0241 20.3339L9.02408 20.3352M9.02408 20.3352L13.9745 20.1071M13.9745 20.1071C13.9745 20.1085 13.9745 20.1099 13.9745 20.1112L14.9745 20.1094M13.9745 20.1071L10.8133 21.9948L12.9431 22.0025C14.063 22.0071 14.9696 21.1575 14.9745 20.1094M13.9745 20.1071C13.9735 18.9585 14.4192 17.9112 15.3893 17.3861C16.3378 16.8726 17.473 17.0319 18.4901 17.5815L18.0147 18.4613M13.9745 20.1071C13.9745 20.1063 13.9745 20.1055 13.9745 20.1047L14.9745 20.1094M14.9745 20.1094C14.9712 18.2948 16.3399 17.5563 18.0147 18.4613M11.0569 2.00002C9.93706 1.99535 9.02509 2.8536 9.02544 3.89302C9.02873 5.70768 7.66013 6.4462 5.98525 5.5412C5.01362 5.0162 3.76762 5.33598 3.212 6.23664L2.27171 7.76085C1.71609 8.66151 2.04318 9.8313 3.0148 10.3563C4.68968 11.2613 4.6906 12.7398 3.00976 13.6444L11.0569 2.00002ZM11.0569 2.00002L13.1867 2.00765L11.0569 2.00002ZM14.9762 3.88681L13.9762 3.88827L13.9762 3.88613L13.9759 3.67656C13.9686 3.34982 13.6676 3.00183 13.199 3.00757L13.1831 3.00764L11.0533 3.00001L11.0527 3.00001C10.4263 2.9974 10.0258 3.46588 10.0254 3.89187L18.6923 6.3058M14.9762 3.88681C14.9703 5.69647 16.3398 6.43647 18.0206 5.53181L18.2238 5.42227C19.0809 4.97311 20.1743 5.24062 20.6543 6.04265L21.7262 7.76502C22.2905 8.67035 21.9523 9.8386 20.9902 10.358C19.3093 11.2627 19.3103 12.7412 20.9852 13.6462C21.9476 14.1662 22.2893 15.3323 21.7283 16.2416M14.9762 3.88681L14.9759 3.66727L14.9762 3.88681ZM21.7283 16.2416L20.8773 15.7166C21.1167 15.3284 21.0001 14.7909 20.5098 14.526L20.5098 14.526C19.5043 13.9827 18.7283 13.1127 18.7293 12.0012C18.7302 10.8897 19.5075 10.0206 20.5157 9.47777M21.7283 16.2416L20.788 17.7658C20.2324 18.6665 18.9863 18.9863 18.0147 18.4613M21.7283 16.2416L20.8772 15.7166L19.937 17.2408L19.937 17.2408C19.6729 17.6689 19.018 17.8668 18.4901 17.5815L18.0147 18.4613M20.5157 9.47777C20.5155 9.47787 20.5153 9.47797 20.5151 9.47807L20.9902 10.3579L20.5163 9.47746C20.5161 9.47757 20.5159 9.47767 20.5157 9.47777ZM20.5157 9.47777C21.0026 9.21454 21.1173 8.67857 20.8775 8.29397L20.8772 8.2934L19.8053 6.57103L19.7962 6.55616C19.6147 6.25294 19.124 6.08231 18.6923 6.3058M18.6923 6.3058L18.6983 6.30255L18.2239 5.42231L18.688 6.308C18.6894 6.30727 18.6909 6.30653 18.6923 6.3058Z" stroke="#C4C4C4" stroke-width="2" stroke-miterlimit="10" stroke-linecap="round" stroke-linejoin="round"/>
<path d="M12 9C13.6569 9 15 10.3431 15 12C15 13.6569 13.6569 15 12 15C10.3431 15 9 13.6569 9 12C9 10.3431 10.3431 9 12 9Z" stroke="#C4C4C4" stroke-width="2"/>
</svg>
